<svg width="60" height="60" viewBox="0 0 60 60" fill="none" xmlns="http://www.w3.org/2000/svg">
<g clip-path="url(#clip0)">
<path fill-rule="evenodd" clip-rule="evenodd" d="M49.2188 22.257C49.2188 19.9922 47.3828 18.1562 45.118 18.1562H45C44.4822 18.1562 44.0625 18.576 44.0625 19.0937C44.0625 19.6115 44.4822 20.0312 45 20.0312H45.118C46.3473 20.0312 47.3438 21.0277 47.3438 22.257V27.5312C47.3438 28.1312 47.6112 28.7 48.0733 29.0827L50.0927 30.8125L48.0733 32.5423C47.6112 32.925 47.3438 33.4938 47.3438 34.0937V39.368C47.3438 40.5973 46.3473 41.5938 45.118 41.5938H45C44.4822 41.5938 44.0625 42.0135 44.0625 42.5312C44.0625 43.049 44.4822 43.4688 45 43.4688H45.118C47.3828 43.4688 49.2188 41.6328 49.2188 39.368V34.0937C49.2188 34.0522 49.2373 34.0129 49.2692 33.9864L52.1605 31.5345C52.3755 31.3564 52.5 31.0917 52.5 30.8125C52.5 30.5333 52.3755 30.2686 52.1605 30.0905L49.2692 27.6386C49.2373 27.6121 49.2188 27.5728 49.2188 27.5312V22.257Z" fill="#0038FF"/>
<path fill-rule="evenodd" clip-rule="evenodd" d="M10.7812 22.257C10.7812 19.9922 12.6172 18.1562 14.882 18.1562H15C15.5178 18.1562 15.9375 18.576 15.9375 19.0937C15.9375 19.6115 15.5178 20.0312 15 20.0312H14.882C13.6527 20.0312 12.6562 21.0277 12.6562 22.257V27.5312C12.6562 28.1312 12.3888 28.7 11.9267 29.0827L9.90733 30.8125L11.9267 32.5423C12.3888 32.925 12.6562 33.4938 12.6562 34.0937V39.368C12.6562 40.5973 13.6527 41.5938 14.882 41.5938H15C15.5178 41.5938 15.9375 42.0135 15.9375 42.5312C15.9375 43.049 15.5178 43.4688 15 43.4688H14.882C12.6172 43.4688 10.7812 41.6328 10.7812 39.368V34.0937C10.7812 34.0522 10.7627 34.0129 10.7308 33.9864L7.83954 31.5345C7.62447 31.3564 7.5 31.0917 7.5 30.8125C7.5 30.5333 7.62447 30.2686 7.83954 30.0905L10.7308 27.6386C10.7627 27.6121 10.7812 27.5728 10.7812 27.5312V22.257Z" fill="#0038FF"/>
<circle cx="22.9688" cy="23.3125" r="1.875" fill="#0038FF"/>
<circle cx="22.9688" cy="38.3125" r="1.875" fill="#0038FF"/>
<circle cx="37.0312" cy="23.3125" r="1.875" fill="#0038FF"/>
<circle cx="37.0312" cy="38.3125" r="1.875" fill="#0038FF"/>
<path fill-rule="evenodd" clip-rule="evenodd" d="M34.3788 22.375H25.6212C25.7249 22.6682 25.7813 22.9838 25.7813 23.3125C25.7813 23.6412 25.7249 23.9568 25.6212 24.25H34.3788C34.2751 23.9568 34.2188 23.6412 34.2188 23.3125C34.2188 22.9838 34.2751 22.6682 34.3788 22.375Z" fill="#A1B2ED"/>
<path fill-rule="evenodd" clip-rule="evenodd" d="M34.3788 37.375H25.6212C25.7249 37.6682 25.7813 37.9838 25.7813 38.3125C25.7813 38.6412 25.7249 38.9568 25.6212 39.25H34.3788C34.2751 38.9568 34.2188 38.6412 34.2188 38.3125C34.2188 37.9838 34.2751 37.6682 34.3788 37.375Z" fill="#A1B2ED"/>
<path fill-rule="evenodd" clip-rule="evenodd" d="M37.0312 26.125C37.36 26.125 37.6755 26.0686 37.9688 25.965V35.66C37.6755 35.5564 37.36 35.5 37.0312 35.5C36.7025 35.5 36.387 35.5564 36.0938 35.66V25.965C36.387 26.0686 36.7025 26.125 37.0312 26.125Z" fill="#A1B2ED"/>
<path fill-rule="evenodd" clip-rule="evenodd" d="M22.9688 26.1249C23.2975 26.1249 23.613 26.0685 23.9062 25.9648V35.6599C23.613 35.5563 23.2975 35.4999 22.9688 35.4999C22.64 35.4999 22.3245 35.5563 22.0312 35.6599V25.9648C22.3245 26.0685 22.64 26.1249 22.9688 26.1249Z" fill="#A1B2ED"/>
</g>
<defs>
<clipPath id="clip0">
<rect width="60" height="60" rx="14.0625" fill="white"/>
</clipPath>
</defs>
</svg>
