<svg width="130" height="67" viewBox="0 0 130 67" fill="none" xmlns="http://www.w3.org/2000/svg">
<path d="M34.9593 36.0849C35.8068 36.0849 36.4424 36.3181 36.8661 36.7846C37.3323 37.2087 37.5653 37.8236 37.5653 38.6293C37.5653 40.4105 37.184 41.7675 36.4212 42.7005C35.7008 43.591 34.6415 44.0363 33.2431 44.0363C31.8447 44.0363 30.6158 43.8667 29.5565 43.5274C28.5395 43.1457 27.586 42.5308 26.6962 41.6827C25.2131 43.8031 23.4121 44.8633 21.2934 44.8633C17.3525 44.8633 13.0303 42.3188 8.32666 37.2299L7.2461 38.8838C7.11898 40.8345 7.35204 44.1847 7.94529 48.9344C8.58091 53.7264 9.36485 58.6881 10.2971 63.8194L3.62305 67L3.05099 66.6183C2.24587 62.3352 1.5255 58.0308 0.889873 53.7052C0.296624 49.3797 0 46.2627 0 44.3544C0 41.4282 0.338999 38.8838 1.017 36.721C1.73737 34.5158 2.8603 32.5015 4.3858 30.6779C6.54692 28.0911 8.91991 25.9071 11.5048 24.126C14.0896 22.3448 16.3991 21.4543 18.4331 21.4543C19.8738 21.4543 21.1027 21.836 22.1197 22.5993C23.1791 23.3202 24.0901 24.2956 24.8529 25.5254C25.658 26.7128 26.6962 28.5363 27.9674 30.996C28.7725 32.5227 29.4293 33.6253 29.9378 34.3038C30.4463 34.9399 31.0608 35.4064 31.7812 35.7032C32.5015 35.9577 33.5609 36.0849 34.9593 36.0849ZM20.3399 37.3571C21.3993 37.3571 22.2892 36.9542 23.0096 36.1485C23.0096 36.0637 22.9884 36.0001 22.946 35.9577C22.9036 35.9153 22.8824 35.8729 22.8824 35.8304C21.7383 33.4132 20.7637 31.6745 19.9586 30.6143C19.1958 29.5541 18.4331 29.024 17.6703 29.024C16.9923 29.024 16.1872 29.3209 15.255 29.9146C14.3227 30.5083 13.3693 31.314 12.3947 32.3318C13.8778 33.9433 15.2973 35.1943 16.6533 36.0849C18.0517 36.933 19.2806 37.3571 20.3399 37.3571Z" fill="#0038FF"/>
<path d="M57.8144 36.0849C59.5094 36.0849 60.3569 36.933 60.3569 38.6293C60.3569 42.234 58.9585 44.0363 56.1618 44.0363C53.7464 44.0363 51.5217 43.7819 49.4877 43.273C47.4537 42.7641 45.8223 42.0219 44.5934 41.0466C43.4069 42.0219 42.0509 42.7641 40.5254 43.273C39.0423 43.7819 37.305 44.0363 35.3133 44.0363H33.2158L34.932 36.0849H36.3939C37.2838 36.0849 38.1524 36.0213 38.9999 35.8941C39.8474 35.7244 40.4407 35.5124 40.7797 35.2579C41.5424 33.392 42.284 30.4235 43.0044 26.3524L51.2039 24.444L51.8395 24.8893C51.331 27.0521 50.8437 28.9392 50.3776 30.5507C49.9115 32.1198 49.403 33.5404 48.8521 34.8127C51.098 35.6608 54.0854 36.0849 57.8144 36.0849ZM54.5092 53.1327L50.4412 59.2394L44.2756 54.8502L41.3518 59.2394L34.8684 54.6594L38.8728 48.6799L45.1655 53.0055L48.0258 48.6799L54.5092 53.1327Z" fill="#0038FF"/>
<path d="M74.4901 21.4543C76.4393 21.4543 78.3038 22.1328 80.0835 23.4899C81.8633 24.8469 83.304 26.628 84.4058 28.8332C85.5075 31.0384 86.0584 33.3284 86.0584 35.7032C86.0584 38.4173 85.4016 40.6225 84.088 42.3188C82.8167 44.0151 80.9946 44.8633 78.6216 44.8633C76.7995 44.8633 74.8079 44.524 72.6468 43.8455C70.4856 43.1245 68.3245 42.0007 66.1634 40.4741C64.9345 41.8735 63.5362 42.8277 61.9683 43.3366C60.4004 43.8031 58.4512 44.0363 56.1206 44.0363L57.8367 36.0849C58.6842 36.0849 59.3622 35.9789 59.8707 35.7668C60.4216 35.5124 60.9301 35.0883 61.3962 34.4946C61.8624 33.8585 62.4556 32.8619 63.176 31.5049C64.2353 29.6389 65.2523 28.0275 66.227 26.6704C67.2016 25.271 68.3881 24.0624 69.7865 23.0446C71.2272 21.9844 72.7951 21.4543 74.4901 21.4543ZM76.7783 36.9755C77.7106 36.9755 78.5369 36.7846 79.2572 36.4029C79.1725 35.5124 78.8759 34.4734 78.3674 33.286C77.9012 32.0986 77.308 31.102 76.5876 30.2963C75.8672 29.4481 75.1469 29.024 74.4265 29.024C73.7061 29.024 73.0069 29.4693 72.3289 30.3599C71.6933 31.208 70.867 32.5439 69.85 34.3674C71.1213 35.1731 72.3501 35.8092 73.5366 36.2757C74.7655 36.7422 75.8461 36.9755 76.7783 36.9755Z" fill="#0038FF"/>
<path d="M114.252 36.0849C115.184 36.0849 115.841 36.3181 116.222 36.7846C116.646 37.2511 116.858 37.866 116.858 38.6293C116.858 40.2832 116.519 41.5979 115.841 42.5732C115.205 43.5486 114.125 44.0363 112.599 44.0363C110.65 44.0363 108.934 43.7183 107.451 43.0821C106.645 45.1601 105.332 47.0472 103.51 48.7435C101.688 50.4823 99.4841 51.9241 96.8993 53.0691C94.3144 54.2565 91.4541 55.1259 88.3183 55.6772L84.0597 49.8249L84.5046 49.1888C87.6827 48.6375 90.4795 47.8318 92.8948 46.7716C95.3526 45.7538 97.3654 44.6088 98.9333 43.3366C100.501 42.0644 101.645 40.7285 102.366 39.3291C100.543 35.2579 98.9756 31.8865 97.662 29.2149L103.319 22.7265H104.082L106.815 30.4871C107.408 32.141 108.001 33.3708 108.595 34.1766C109.188 34.9399 109.887 35.4488 110.692 35.7032C111.54 35.9577 112.726 36.0849 114.252 36.0849Z" fill="#0038FF"/>
<path d="M114.323 36.0849H114.958C116.272 36.0849 117.501 36.0425 118.645 35.9577C119.831 35.8729 120.637 35.7456 121.06 35.576C121.103 35.4488 121.124 35.2155 121.124 34.8763C121.124 33.7313 120.785 32.3318 120.107 30.6779C119.471 29.024 118.581 27.0309 117.437 24.6985L123.857 19.6096H124.493C125.552 21.8148 126.4 24.1684 127.035 26.6704C127.713 29.1301 128.052 31.1232 128.052 32.6499C128.052 34.3038 127.756 35.8516 127.162 37.2935C126.611 38.7354 125.785 40.0288 124.683 41.1738C123.624 42.1916 122.247 42.9337 120.552 43.4002C118.899 43.8243 116.505 44.0363 113.369 44.0363H112.607L114.323 36.0849ZM123.221 59.6847L116.42 54.9138L120.679 48.6799L127.417 53.3236L123.221 59.6847Z" fill="#0038FF"/>
<path d="M18.3956 13.3593C16.6161 13.3593 15.1755 12.8296 14.0739 11.7703C13.0147 10.7109 12.485 9.3126 12.485 7.57527C12.485 6.30406 12.7393 5.18115 13.2477 4.20656C13.7561 3.23196 14.4764 2.49042 15.4085 1.98193C16.383 1.43108 17.4846 1.15565 18.7133 1.15565C20.4929 1.15565 21.891 1.72769 22.9079 2.87178C23.9671 4.01588 24.4968 5.52015 24.4968 7.38459C24.4968 8.57106 24.2425 9.60921 23.7341 10.4991C23.2257 11.3889 22.5054 12.0881 21.5733 12.5966C20.6411 13.105 19.5819 13.3593 18.3956 13.3593ZM18.4591 9.48209C19.0947 9.48209 19.5819 9.29141 19.9209 8.91005C20.3022 8.52868 20.4929 8.04138 20.4929 7.44815C20.4929 6.81255 20.3022 6.30406 19.9209 5.9227C19.5395 5.54133 19.0523 5.35065 18.4591 5.35065C17.9083 5.35065 17.4211 5.54133 16.9974 5.9227C16.6161 6.30406 16.4254 6.81255 16.4254 7.44815C16.4254 8.04138 16.6161 8.52868 16.9974 8.91005C17.3787 9.29141 17.866 9.48209 18.4591 9.48209Z" fill="#5F85F5"/>
<path d="M63.188 59.9407V55.2373L78.3774 52.3135V57.0805L63.188 59.9407Z" fill="#5F85F5"/>
<path d="M102.183 12.2036C100.403 12.2036 98.9625 11.674 97.8609 10.6146C96.8017 9.55528 96.2721 8.15695 96.2721 6.41962C96.2721 5.14841 96.5263 4.02551 97.0347 3.05091C97.5432 2.07631 98.2634 1.33477 99.1956 0.826286C100.17 0.275429 101.272 0 102.5 0C104.28 0 105.678 0.572046 106.695 1.71614C107.754 2.86023 108.284 4.3645 108.284 6.22894C108.284 7.41541 108.03 8.45356 107.521 9.34341C107.013 10.2333 106.292 10.9324 105.36 11.4409C104.428 11.9494 103.369 12.2036 102.183 12.2036ZM102.246 8.32644C102.882 8.32644 103.369 8.13576 103.708 7.7544C104.089 7.37303 104.28 6.88574 104.28 6.2925C104.28 5.6569 104.089 5.14841 103.708 4.76705C103.327 4.38568 102.839 4.195 102.246 4.195C101.695 4.195 101.208 4.38568 100.784 4.76705C100.403 5.14841 100.212 5.6569 100.212 6.2925C100.212 6.88574 100.403 7.37303 100.784 7.7544C101.166 8.13576 101.653 8.32644 102.246 8.32644Z" fill="#5F85F5"/>
<path d="M113.019 15.1871V10.4837L129.098 7.55986V12.3269L113.019 15.1871Z" fill="#5F85F5"/>
</svg>
