<svg width="24" height="24" viewBox="0 0 24 24" fill="none" xmlns="http://www.w3.org/2000/svg">
<path fill-rule="evenodd" clip-rule="evenodd" d="M12.6149 12.7516C12.4577 13.3767 12.0775 13.9075 11.5667 14.181L11.1751 14.3963L11.8898 15.6056L12.2709 15.3988C12.8226 15.0886 13.2778 14.6318 13.586 14.079C13.9168 13.4908 14.0947 12.8289 14.1034 12.1541V12.1398C14.0948 11.465 13.9169 10.8031 13.586 10.2149C13.278 9.66194 12.8228 9.20511 12.2709 8.89515L11.8898 8.68837L11.1751 9.89762L11.5667 10.112C12.0908 10.3979 12.4787 10.9554 12.6254 11.6081H7.94755C7.81653 11.3564 7.60455 11.1562 7.34581 11.0397C7.08706 10.9233 6.79663 10.8974 6.52136 10.9662C6.24609 11.035 6.00202 11.1946 5.82852 11.4191C5.65502 11.6436 5.5622 11.92 5.56504 12.2037C5.56788 12.4875 5.6662 12.762 5.84416 12.983C6.02211 13.204 6.26932 13.3586 6.54592 13.4219C6.82251 13.4852 7.11236 13.4535 7.36873 13.3319C7.62509 13.2103 7.83302 13.0059 7.95898 12.7516H12.6149ZM12.3071 23.1965C7.16711 23.1965 3 18.2709 3 12.1961C3 6.12121 7.16711 1.19653 12.3071 1.19653C17.4472 1.19653 21.6152 6.12121 21.6152 12.1961C21.6152 18.2709 17.4481 23.1965 12.3071 23.1965ZM17.4329 12.9632C17.167 15.5522 15.7176 17.7344 13.7098 18.8074L14.4722 20.0624C17.0813 18.6626 18.9004 15.6923 18.9614 12.2351C18.9004 8.7789 17.0813 5.80865 14.4722 4.40882L13.7098 5.66381C15.7214 6.73679 17.167 8.91516 17.4329 11.5081L17.4538 12.2351L17.4329 12.9632ZM13.1676 17.8535L13.3468 17.7582C14.2879 17.2266 15.0636 16.4449 15.588 15.4998C16.1625 14.4776 16.4715 13.3276 16.4866 12.1551V12.1551C16.4713 10.9829 16.1624 9.83326 15.588 8.8113C15.0631 7.86723 14.2875 7.08664 13.3468 6.55574L13.1676 6.46045L12.4444 7.67637L12.6349 7.77738C13.2983 8.15179 13.8557 8.68854 14.2549 9.33731C14.6906 10.0419 14.9589 10.837 15.0392 11.6615L15.0525 12.1522L15.0392 12.643C14.9589 13.4675 14.6906 14.2626 14.2549 14.9671C13.8564 15.6164 13.2988 16.1533 12.6349 16.5271L12.4444 16.629L13.1676 17.8535Z" fill="#5000B9"/>
</svg>
