<svg width="24" height="24" viewBox="0 0 24 24" fill="none" xmlns="http://www.w3.org/2000/svg">
<path d="M1.00365 12.1844C0.88239 6.25486 5.84188 1.16199 11.9897 1.17412C18.089 1.18624 23 6.16998 23 12.2087C23 18.2595 18.0284 23.2311 11.9776 23.219C5.81762 23.219 0.846012 18.0655 1.00365 12.1844ZM21.1447 12.1844C21.3145 7.38257 17.1675 3.01725 12.0867 2.993C6.98171 2.96875 2.74978 7.00667 2.7619 12.2208C2.77403 17.5319 7.11509 21.4122 11.9897 21.4243C17.0704 21.4243 21.3266 17.059 21.1447 12.1844V12.1844Z" fill="url(#paint0_linear)"/>
<path d="M15.6033 12.2208C15.7852 12.5239 16.0519 12.718 16.2702 12.9484C17.798 14.5005 17.3251 17.0105 15.3486 17.8836C14.6211 18.211 13.9784 17.8108 13.9784 17.0226C13.9663 13.8335 13.9663 10.6444 13.9784 7.45533C13.9784 6.53376 14.6089 6.16998 15.4456 6.54588C16.5733 7.05517 17.1675 7.96461 17.216 9.14082C17.2645 10.1351 16.8522 11.0325 16.0519 11.6873C15.9064 11.8449 15.7124 11.9662 15.6033 12.2208V12.2208Z" fill="url(#paint1_linear)"/>
<path d="M11.5654 12.1965V7.72209C11.5654 7.54021 11.5654 7.35832 11.6017 7.17643C11.6745 6.82478 11.9534 6.59439 12.2808 6.58226C12.6203 6.57014 12.9356 6.82478 13.0083 7.18856C13.0326 7.30981 13.0326 7.43107 13.0326 7.55233C13.0326 10.5838 13.0205 13.6031 13.0205 16.6346C13.0205 16.865 12.9962 17.0833 12.9113 17.2894C12.7901 17.5804 12.5112 17.7623 12.1959 17.7381C11.9049 17.7138 11.626 17.4834 11.5775 17.1682C11.5532 17.0105 11.5532 16.8408 11.5532 16.6831C11.5532 15.1916 11.5532 13.7002 11.5654 12.1965C11.5532 12.1965 11.5532 12.1965 11.5654 12.1965V12.1965Z" fill="url(#paint2_linear)"/>
<path d="M10.5952 12.1965V14.4883V14.6702C10.5709 15.2522 10.292 15.5918 9.85549 15.5796C9.41896 15.5675 9.14007 15.228 9.14007 14.6338C9.12794 12.9968 9.14007 11.372 9.14007 9.73497C9.14007 9.65009 9.14007 9.57733 9.15219 9.49245C9.22495 9.05592 9.55235 8.7649 9.92825 8.80127C10.3163 8.83765 10.5952 9.12867 10.6073 9.57733C10.6073 10.4625 10.6073 11.3356 10.5952 12.1965C10.5952 12.1965 10.6073 12.1965 10.5952 12.1965Z" fill="url(#paint3_linear)"/>
<path d="M8.17001 12.2208C8.17001 12.3784 8.18213 12.5482 8.17001 12.7058C8.1215 13.0575 7.91536 13.2515 7.57584 13.3C7.22419 13.3485 6.96955 13.2394 6.83616 12.912C6.64215 12.4512 6.64215 11.9661 6.82403 11.4932C6.95742 11.1537 7.24844 11.0325 7.62434 11.1052C7.95174 11.1658 8.13363 11.372 8.17001 11.7358C8.19426 11.8934 8.17001 12.051 8.17001 12.2208Z" fill="url(#paint4_linear)"/>
<defs>
<linearGradient id="paint0_linear" x1="12" y1="1.17412" x2="12" y2="23.219" gradientUnits="userSpaceOnUse">
<stop offset="0.015" stop-color="#DA3D94"/>
<stop offset="0.542" stop-color="#9B2CD5"/>
<stop offset="1" stop-color="#2DA4E0"/>
</linearGradient>
<linearGradient id="paint1_linear" x1="15.5945" y1="6.39953" x2="15.5945" y2="17.9983" gradientUnits="userSpaceOnUse">
<stop offset="0.015" stop-color="#DA3D94"/>
<stop offset="0.542" stop-color="#9B2CD5"/>
<stop offset="1" stop-color="#2DA4E0"/>
</linearGradient>
<linearGradient id="paint2_linear" x1="12.2869" y1="6.5819" x2="12.2869" y2="17.7273" gradientUnits="userSpaceOnUse">
<stop offset="0.015" stop-color="#DA3D94"/>
<stop offset="0.542" stop-color="#9B2CD5"/>
<stop offset="1" stop-color="#2DA4E0"/>
</linearGradient>
<linearGradient id="paint3_linear" x1="9.87102" y1="8.82007" x2="9.87102" y2="15.5947" gradientUnits="userSpaceOnUse">
<stop offset="0.015" stop-color="#DA3D94"/>
<stop offset="0.542" stop-color="#9B2CD5"/>
<stop offset="1" stop-color="#2DA4E0"/>
</linearGradient>
<linearGradient id="paint4_linear" x1="7.43494" y1="11.0848" x2="7.43494" y2="13.3035" gradientUnits="userSpaceOnUse">
<stop offset="0.015" stop-color="#DA3D94"/>
<stop offset="0.542" stop-color="#9B2CD5"/>
<stop offset="1" stop-color="#2DA4E0"/>
</linearGradient>
</defs>
</svg>
