<svg width="24" height="24" viewBox="0 0 24 24" fill="none" xmlns="http://www.w3.org/2000/svg">
<path fill-rule="evenodd" clip-rule="evenodd" d="M22.953 20.409C22.735 20.962 22.233 21.739 21.521 22.289C21.111 22.606 20.619 22.909 19.944 23.109C19.224 23.321 18.34 23.393 17.238 23.393H7.159C6.057 23.393 5.172 23.321 4.453 23.108C3.779 22.908 3.288 22.598 2.876 22.288C2.163 21.738 1.66 20.958 1.443 20.408C1.005 19.288 1 18.028 1 17.228V7.159C1 6.362 1.01 5.099 1.45 3.984C1.67 3.431 2.17 2.654 2.88 2.104C3.29 1.788 3.78 1.484 4.46 1.284C5.18 1.072 6.07 1 7.17 1H17.25C18.35 1 19.24 1.08 19.96 1.29C20.64 1.49 21.13 1.8 21.54 2.11C22.25 2.66 22.76 3.44 22.97 3.99C23.41 5.11 23.42 6.37 23.42 7.17V17.24C23.42 18.04 23.42 19.3 22.98 20.42L22.953 20.409Z" fill="url(#paint0_linear)"/>
<path d="M13.823 13.871C13.487 13.517 12.897 13.289 12.2 13.289C11.51 13.289 10.92 13.516 10.58 13.871C10.41 14.056 10.31 14.246 10.29 14.516C10.24 15.039 10.27 15.49 10.33 16.21C10.39 16.9 10.5 17.82 10.65 18.75C10.76 19.42 10.84 19.77 10.92 20.03C11.05 20.45 11.51 20.81 12.23 20.81C12.96 20.81 13.42 20.45 13.54 20.03C13.62 19.78 13.7 19.42 13.81 18.75C13.96 17.82 14.07 16.91 14.13 16.22C14.19 15.5 14.23 15.05 14.17 14.53C14.14 14.26 14.05 14.07 13.88 13.89L13.823 13.871ZM10.37 10.714C10.37 11.726 11.19 12.547 12.21 12.547C13.23 12.547 14.05 11.727 14.05 10.714C14.05 9.702 13.23 8.881 12.22 8.881C11.21 8.881 10.39 9.701 10.39 10.714H10.37ZM12.18 3.482C7.9 3.494 4.39 6.972 4.33 11.257C4.29 14.729 6.51 17.699 9.6 18.787C9.68 18.813 9.75 18.751 9.74 18.672C9.7 18.402 9.66 18.132 9.63 17.865C9.62 17.771 9.56 17.69 9.47 17.652C7.03 16.582 5.32 14.13 5.35 11.289C5.39 7.559 8.43 4.519 12.16 4.489C15.97 4.459 19.09 7.551 19.09 11.356C19.09 14.169 17.39 16.592 14.96 17.652C14.88 17.69 14.82 17.772 14.8 17.865C14.77 18.131 14.73 18.402 14.69 18.671C14.68 18.751 14.76 18.811 14.83 18.786C17.9 17.708 20.1 14.784 20.1 11.356C20.1 7.006 16.56 3.469 12.2 3.482H12.18ZM12.04 7.095C14.47 7.001 16.48 8.95 16.48 11.359C16.48 12.584 15.96 13.689 15.13 14.469C15.06 14.536 15.03 14.629 15.03 14.726C15.05 15.019 15.04 15.304 15.02 15.626C15.02 15.711 15.11 15.766 15.19 15.716C16.58 14.766 17.5 13.168 17.5 11.359C17.5 8.381 15.02 5.971 12.02 6.089C9.23 6.196 6.99 8.497 6.96 11.291C6.94 13.128 7.86 14.755 9.27 15.718C9.34 15.758 9.44 15.708 9.43 15.618C9.41 15.298 9.41 15.008 9.43 14.718C9.43 14.618 9.4 14.528 9.33 14.458C8.48 13.648 7.95 12.498 7.99 11.228C8.05 8.988 9.85 7.158 12.09 7.078L12.04 7.095Z" fill="white"/>
<defs>
<linearGradient id="paint0_linear" x1="12.2" y1="1" x2="12.2" y2="23.393" gradientUnits="userSpaceOnUse">
<stop stop-color="#F452FF"/>
<stop offset="1" stop-color="#832BC1"/>
</linearGradient>
</defs>
</svg>
