<svg width="24" height="24" viewBox="0 0 24 24" fill="none" xmlns="http://www.w3.org/2000/svg">
<path fill-rule="evenodd" clip-rule="evenodd" d="M8.67015 1H15.3299C17.5385 1 18.6427 1 19.8315 1.37587C21.1293 1.84827 22.1517 2.87065 22.6242 4.16855C23 5.35728 23 6.46154 23 8.67015V15.3299C23 17.5385 23 18.6427 22.6242 19.8315C22.1517 21.1293 21.1293 22.1517 19.8315 22.6241C18.6427 23 17.5385 23 15.3299 23H8.67015C6.46154 23 5.35728 23 4.16855 22.6241C2.87065 22.1517 1.84827 21.1293 1.37587 19.8315C1 18.6427 1 17.5385 1 15.3299V8.67015C1 6.46154 1 5.35728 1.37587 4.16855C1.84827 2.87065 2.87065 1.84827 4.16855 1.37587C5.35728 1 6.46154 1 8.67015 1Z" fill="url(#paint0_linear)"/>
<path fill-rule="evenodd" clip-rule="evenodd" d="M12 2C17.5229 2 22 6.47715 22 12C22 17.5229 17.5229 22 12 22C6.47715 22 2 17.5229 2 12C2 6.47715 6.47715 2 12 2Z" fill="url(#paint1_linear)"/>
<path fill-rule="evenodd" clip-rule="evenodd" d="M16.2915 17.8494L14.6138 15.5246C15.6674 14.754 16.3519 13.5095 16.3519 12.1051C16.3519 9.76608 14.4538 7.86992 12.1125 7.86992C9.77111 7.86992 7.87307 9.76608 7.87307 12.1051C7.87307 13.5157 8.56354 14.765 9.62504 15.5347L7.94609 17.8613C6.16134 16.5708 5 14.4728 5 12.1035C5 8.18036 8.18352 5 12.1106 5C16.0377 5 19.2212 8.18036 19.2212 12.1035C19.2212 14.4655 18.0669 16.5579 16.2915 17.8494ZM12.1264 10.3893C13.0711 10.3893 13.837 11.1545 13.837 12.0983C13.837 13.0421 13.0711 13.8072 12.1264 13.8072C11.1816 13.8072 10.4157 13.0421 10.4157 12.0983C10.4157 11.1545 11.1816 10.3893 12.1264 10.3893Z" fill="white"/>
<defs>
<linearGradient id="paint0_linear" x1="1" y1="1" x2="1" y2="23" gradientUnits="userSpaceOnUse">
<stop stop-color="#00CCBF"/>
<stop offset="1" stop-color="#00B265"/>
</linearGradient>
<linearGradient id="paint1_linear" x1="2" y1="2" x2="2" y2="22" gradientUnits="userSpaceOnUse">
<stop stop-color="#151515"/>
<stop offset="1" stop-color="#353535"/>
</linearGradient>
</defs>
</svg>
