<svg width="24" height="24" viewBox="0 0 24 24" fill="none" xmlns="http://www.w3.org/2000/svg">
<path d="M23 5.0166H18.2429V7.79987H23V5.0166Z" fill="#40AB5D"/>
<path d="M23 8.87549H18.2429V11.6588H23V8.87549Z" fill="url(#paint0_linear)"/>
<path d="M23 12.7344H18.2429V15.5176H23V12.7344Z" fill="url(#paint1_linear)"/>
<path d="M5.75706 16.5932H1V19.3765H5.75706V16.5932Z" fill="url(#paint2_linear)"/>
<path d="M11.501 16.5932H6.7439V19.3765H11.501V16.5932Z" fill="url(#paint3_linear)"/>
<path d="M17.2561 16.5932H12.499V19.3765H17.2561V16.5932Z" fill="url(#paint4_linear)"/>
<path d="M23 16.5932H18.2429V19.3765H23V16.5932Z" fill="url(#paint5_linear)"/>
<path d="M17.2561 12.7344H12.499V15.5176H17.2561V12.7344Z" fill="url(#paint6_linear)"/>
<path d="M11.501 12.7344H6.7439V15.5176H11.501V12.7344Z" fill="url(#paint7_linear)"/>
<path d="M11.501 8.87549H6.7439V11.6588H11.501V8.87549Z" fill="url(#paint8_linear)"/>
<defs>
<linearGradient id="paint0_linear" x1="20.6447" y1="11.6828" x2="20.6" y2="8.83462" gradientUnits="userSpaceOnUse">
<stop stop-color="#358C7B"/>
<stop offset="0.5256" stop-color="#33A65E"/>
</linearGradient>
<linearGradient id="paint1_linear" x1="18.173" y1="15.3747" x2="23.0721" y2="12.8785" gradientUnits="userSpaceOnUse">
<stop stop-color="#222B90"/>
<stop offset="1" stop-color="#367B99"/>
</linearGradient>
<linearGradient id="paint2_linear" x1="1.00087" y1="17.9859" x2="5.75395" y2="17.9859" gradientUnits="userSpaceOnUse">
<stop stop-color="#FF9900"/>
<stop offset="1" stop-color="#FF8000"/>
</linearGradient>
<linearGradient id="paint3_linear" x1="6.7492" y1="17.9859" x2="11.5023" y2="17.9859" gradientUnits="userSpaceOnUse">
<stop stop-color="#FF8000"/>
<stop offset="1" stop-color="#CC1953"/>
</linearGradient>
<linearGradient id="paint4_linear" x1="12.4977" y1="17.9859" x2="17.2507" y2="17.9859" gradientUnits="userSpaceOnUse">
<stop stop-color="#CC1953"/>
<stop offset="1" stop-color="#241284"/>
</linearGradient>
<linearGradient id="paint5_linear" x1="18.2404" y1="17.9859" x2="22.9934" y2="17.9859" gradientUnits="userSpaceOnUse">
<stop stop-color="#222B90"/>
<stop offset="1" stop-color="#3559A6"/>
</linearGradient>
<linearGradient id="paint6_linear" x1="12.3101" y1="14.8764" x2="17.4383" y2="13.3768" gradientUnits="userSpaceOnUse">
<stop stop-color="#CC1953"/>
<stop offset="1" stop-color="#241284"/>
</linearGradient>
<linearGradient id="paint7_linear" x1="6.58001" y1="13.2001" x2="11.6715" y2="15.0532" gradientUnits="userSpaceOnUse">
<stop offset="0.00266984" stop-color="#FFCC00"/>
<stop offset="0.9999" stop-color="#CE1938"/>
</linearGradient>
<linearGradient id="paint8_linear" x1="7.1487" y1="8.44294" x2="11.1028" y2="12.0916" gradientUnits="userSpaceOnUse">
<stop offset="0.00266984" stop-color="#FFD100"/>
<stop offset="1" stop-color="#FD5A22"/>
</linearGradient>
</defs>
</svg>
