<svg width="24" height="24" viewBox="0 0 24 24" fill="none" xmlns="http://www.w3.org/2000/svg">
<path d="M10.625 8.1965V11.5303V12.8628V16.1965H13.375V12.8628V11.5303V8.1965H10.625Z" fill="#FAB908"/>
<path d="M2.375 12.8215C3.13439 12.8215 3.75 12.2059 3.75 11.4465C3.75 10.6871 3.13439 10.0715 2.375 10.0715C1.61561 10.0715 1 10.6871 1 11.4465C1 12.2059 1.61561 12.8215 2.375 12.8215Z" fill="#0066D9"/>
<path d="M2.375 14.3215C3.13439 14.3215 3.75 13.7059 3.75 12.9465C3.75 12.1871 3.13439 11.5715 2.375 11.5715C1.61561 11.5715 1 12.1871 1 12.9465C1 13.7059 1.61561 14.3215 2.375 14.3215Z" fill="#0066D9"/>
<path d="M3.75 11.4465H1V12.9465H3.75V11.4465Z" fill="#0066D9"/>
<path d="M21.625 14.3215C22.3844 14.3215 23 13.7059 23 12.9465C23 12.1871 22.3844 11.5715 21.625 11.5715C20.8656 11.5715 20.25 12.1871 20.25 12.9465C20.25 13.7059 20.8656 14.3215 21.625 14.3215Z" fill="#4285F4"/>
<path d="M21.625 12.8215C22.3844 12.8215 23 12.2059 23 11.4465C23 10.6871 22.3844 10.0715 21.625 10.0715C20.8656 10.0715 20.25 10.6871 20.25 11.4465C20.25 12.2059 20.8656 12.8215 21.625 12.8215Z" fill="#4285F4"/>
<path d="M20.25 12.9465H23V11.4465H20.25V12.9465Z" fill="#4285F4"/>
<path d="M7.125 17.3215C7.88439 17.3215 8.5 16.7059 8.5 15.9465C8.5 15.1871 7.88439 14.5715 7.125 14.5715C6.36561 14.5715 5.75 15.1871 5.75 15.9465C5.75 16.7059 6.36561 17.3215 7.125 17.3215Z" fill="#EA4335"/>
<path d="M7.125 18.8215C7.88439 18.8215 8.5 18.2059 8.5 17.4465C8.5 16.6871 7.88439 16.0715 7.125 16.0715C6.36561 16.0715 5.75 16.6871 5.75 17.4465C5.75 18.2059 6.36561 18.8215 7.125 18.8215Z" fill="#EA4335"/>
<path d="M8.5 15.9465H5.75V17.4465H8.5V15.9465Z" fill="#EA4335"/>
<path d="M7.125 8.3215C7.88439 8.3215 8.5 7.70589 8.5 6.9465C8.5 6.18711 7.88439 5.5715 7.125 5.5715C6.36561 5.5715 5.75 6.18711 5.75 6.9465C5.75 7.70589 6.36561 8.3215 7.125 8.3215Z" fill="#EA4335"/>
<path d="M7.125 13.1965C7.88439 13.1965 8.5 12.5809 8.5 11.8215C8.5 11.0621 7.88439 10.4465 7.125 10.4465C6.36561 10.4465 5.75 11.0621 5.75 11.8215C5.75 12.5809 6.36561 13.1965 7.125 13.1965Z" fill="#EA4335"/>
<path d="M8.5 6.9465H5.75V11.8528H8.5V6.9465Z" fill="#EA4335"/>
<path d="M16.875 9.8215C17.6344 9.8215 18.25 9.20589 18.25 8.4465C18.25 7.68711 17.6344 7.0715 16.875 7.0715C16.1156 7.0715 15.5 7.68711 15.5 8.4465C15.5 9.20589 16.1156 9.8215 16.875 9.8215Z" fill="#34A853"/>
<path d="M16.875 8.3215C17.6344 8.3215 18.25 7.70589 18.25 6.9465C18.25 6.18711 17.6344 5.5715 16.875 5.5715C16.1156 5.5715 15.5 6.18711 15.5 6.9465C15.5 7.70589 16.1156 8.3215 16.875 8.3215Z" fill="#34A853"/>
<path d="M15.5 8.4465H18.25V6.9465H15.5V8.4465Z" fill="#34A853"/>
<path d="M12 5.4465C12.7594 5.4465 13.375 4.83089 13.375 4.0715C13.375 3.31211 12.7594 2.6965 12 2.6965C11.2406 2.6965 10.625 3.31211 10.625 4.0715C10.625 4.83089 11.2406 5.4465 12 5.4465Z" fill="#FAB908"/>
<path d="M12 3.9465C12.7594 3.9465 13.375 3.33089 13.375 2.5715C13.375 1.81211 12.7594 1.1965 12 1.1965C11.2406 1.1965 10.625 1.81211 10.625 2.5715C10.625 3.33089 11.2406 3.9465 12 3.9465Z" fill="#FAB908"/>
<path d="M10.625 4.0715H13.375V2.5715L10.625 2.5715V4.0715Z" fill="#FAB908"/>
<path d="M12 23.1965C12.7594 23.1965 13.375 22.5809 13.375 21.8215C13.375 21.0621 12.7594 20.4465 12 20.4465C11.2406 20.4465 10.625 21.0621 10.625 21.8215C10.625 22.5809 11.2406 23.1965 12 23.1965Z" fill="#FAB908"/>
<path d="M12 21.6965C12.7594 21.6965 13.375 21.0809 13.375 20.3215C13.375 19.5621 12.7594 18.9465 12 18.9465C11.2406 18.9465 10.625 19.5621 10.625 20.3215C10.625 21.0809 11.2406 21.6965 12 21.6965Z" fill="#FAB908"/>
<path d="M10.625 21.8215H13.375V20.3215H10.625V21.8215Z" fill="#FAB908"/>
<path d="M16.875 18.8215C17.6344 18.8215 18.25 18.2059 18.25 17.4465C18.25 16.6871 17.6344 16.0715 16.875 16.0715C16.1156 16.0715 15.5 16.6871 15.5 17.4465C15.5 18.2059 16.1156 18.8215 16.875 18.8215Z" fill="#34A853"/>
<path d="M16.875 13.9465C17.6344 13.9465 18.25 13.3309 18.25 12.5715C18.25 11.8121 17.6344 11.1965 16.875 11.1965C16.1156 11.1965 15.5 11.8121 15.5 12.5715C15.5 13.3309 16.1156 13.9465 16.875 13.9465Z" fill="#34A853"/>
<path d="M15.5 17.4465H18.25V12.5715H15.5V17.4465Z" fill="#34A853"/>
<path d="M12 9.5715C12.7594 9.5715 13.375 8.95589 13.375 8.1965C13.375 7.43711 12.7594 6.8215 12 6.8215C11.2406 6.8215 10.625 7.43711 10.625 8.1965C10.625 8.95589 11.2406 9.5715 12 9.5715Z" fill="#FAB908"/>
<path d="M12 17.5715C12.7594 17.5715 13.375 16.9559 13.375 16.1965C13.375 15.4371 12.7594 14.8215 12 14.8215C11.2406 14.8215 10.625 15.4371 10.625 16.1965C10.625 16.9559 11.2406 17.5715 12 17.5715Z" fill="#FAB908"/>
</svg>
