<svg width="24" height="24" viewBox="0 0 24 24" fill="none" xmlns="http://www.w3.org/2000/svg">
<path d="M22.9598 20.4065C22.6494 21.1438 22.1574 21.7906 21.5298 22.2865C21.0604 22.6584 20.5241 22.9368 19.9498 23.1065C19.064 23.3262 18.1518 23.4205 17.2398 23.3865H7.16977C6.25779 23.4205 5.34555 23.3262 4.45977 23.1065C3.79183 22.905 3.17662 22.5585 2.65804 22.0918C2.13946 21.625 1.7303 21.0496 1.45977 20.4065C1.11085 19.3705 0.958237 18.2785 1.00977 17.1865V17.1865V7.18651C0.960265 6.10118 1.11285 5.01609 1.45977 3.98651C1.7303 3.34341 2.13946 2.76797 2.65804 2.30125C3.17662 1.83452 3.79183 1.48803 4.45977 1.28651C5.34555 1.0668 6.25779 0.97255 7.16977 1.00651H17.2498C18.1618 0.97255 19.074 1.0668 19.9598 1.28651C20.6277 1.48803 21.2429 1.83452 21.7615 2.30125C22.2801 2.76797 22.6892 3.34341 22.9598 3.98651C23.3062 5.0162 23.4588 6.1012 23.4098 7.18651V17.1865C23.4618 18.2785 23.3092 19.3706 22.9598 20.4065V20.4065Z" fill="url(#paint0_linear)"/>
<path d="M12.2098 19.1165C10.8416 19.1165 9.50406 18.7109 8.36629 17.951C7.22852 17.191 6.34156 16.1108 5.81751 14.847C5.29346 13.5831 5.15583 12.1922 5.42203 10.8501C5.68823 9.50807 6.34631 8.27502 7.31309 7.30685C8.27987 6.33867 9.51196 5.67882 10.8536 5.41068C12.1953 5.14254 13.5864 5.27815 14.851 5.80038C16.1157 6.32261 17.1971 7.208 17.9587 8.34467C18.7203 9.48135 19.1278 10.8183 19.1298 12.1865C19.1338 13.0968 18.9575 13.9989 18.6113 14.8409C18.2651 15.6828 17.7557 16.4479 17.1124 17.092C16.4692 17.7362 15.7048 18.2467 14.8634 18.5942C14.022 18.9416 13.1201 19.1191 12.2098 19.1165V19.1165ZM12.2098 16.3765L12.7298 15.8565L12.2098 13.8565L11.6898 15.8565L12.2098 16.3765ZM11.5498 16.3765L11.2898 17.3765L11.8998 16.7665L11.5498 16.3765ZM12.8798 16.3765L12.5298 16.7265L13.1398 17.3365L12.8798 16.3765ZM13.3698 18.1665L12.2198 17.0165L11.0698 18.1665C11.4494 18.2363 11.8339 18.2764 12.2198 18.2865C12.6043 18.2801 12.9867 18.2297 13.3598 18.1365L13.3698 18.1665ZM12.2098 6.18649C10.7341 6.09857 9.27783 6.55855 8.12037 7.47822C6.96291 8.39788 6.18573 9.71249 5.93787 11.1699C5.69001 12.6273 5.98893 14.1249 6.77729 15.3755C7.56566 16.6261 8.78796 17.5416 10.2098 17.9465L11.5098 13.1365C11.3652 13.031 11.248 12.8925 11.1679 12.7324C11.0879 12.5724 11.0474 12.3954 11.0498 12.2165C11.0511 12.0213 11.102 11.8297 11.1978 11.6597C11.2936 11.4896 11.4311 11.3467 11.5974 11.2445C11.7636 11.1423 11.9531 11.084 12.1481 11.0753C12.3431 11.0665 12.5371 11.1075 12.7118 11.1944C12.8866 11.2813 13.0363 11.4112 13.147 11.572C13.2577 11.7328 13.3256 11.9191 13.3444 12.1133C13.3632 12.3076 13.3323 12.5034 13.2545 12.6824C13.1767 12.8614 13.0546 13.0177 12.8998 13.1365L14.1998 17.9465C15.6216 17.5416 16.8439 16.6261 17.6323 15.3755C18.4207 14.1249 18.7196 12.6273 18.4717 11.1699C18.2239 9.71249 17.4467 8.39788 16.2892 7.47822C15.1318 6.55855 13.6755 6.09857 12.1998 6.18649H12.2098ZM16.1598 15.1865C16.0887 15.2763 15.986 15.3357 15.8726 15.3524C15.7593 15.3691 15.6438 15.342 15.5498 15.2765C15.5028 15.2467 15.4628 15.2073 15.4324 15.1608C15.4019 15.1143 15.3817 15.0618 15.3732 15.0069C15.3647 14.952 15.368 14.8959 15.3829 14.8423C15.3979 14.7888 15.4241 14.7391 15.4598 14.6965C15.9633 13.96 16.2326 13.0886 16.2326 12.1965C16.2326 11.3044 15.9633 10.433 15.4598 9.69649C15.4241 9.65391 15.3979 9.60418 15.3829 9.55064C15.368 9.49711 15.3647 9.441 15.3732 9.38608C15.3817 9.33115 15.4019 9.27869 15.4324 9.23219C15.4628 9.1857 15.5028 9.14625 15.5498 9.11649C15.6438 9.05102 15.7593 9.02387 15.8726 9.0406C15.986 9.05732 16.0887 9.11665 16.1598 9.20649C16.7796 10.0841 17.1124 11.1321 17.1124 12.2065C17.1124 13.2809 16.7796 14.3289 16.1598 15.2065V15.1865ZM14.0598 14.0665C13.9776 13.9762 13.932 13.8586 13.932 13.7365C13.932 13.6144 13.9776 13.4967 14.0598 13.4065C14.3537 13.0677 14.5169 12.635 14.5198 12.1865C14.5134 11.7469 14.3622 11.3216 14.0898 10.9765C14.0134 10.8835 13.9717 10.7668 13.9717 10.6465C13.9717 10.5261 14.0134 10.4095 14.0898 10.3165C14.1273 10.2722 14.1741 10.2367 14.2267 10.2123C14.2794 10.1879 14.3368 10.1753 14.3948 10.1753C14.4528 10.1753 14.5102 10.1879 14.5628 10.2123C14.6155 10.2367 14.6622 10.2722 14.6998 10.3165C15.1658 10.8416 15.4232 11.5194 15.4232 12.2215C15.4232 12.9236 15.1658 13.6014 14.6998 14.1265C14.6562 14.1695 14.6037 14.2024 14.546 14.2229C14.4883 14.2435 14.4268 14.2512 14.3658 14.2455C14.3049 14.2398 14.2459 14.2208 14.193 14.1899C14.1401 14.1589 14.0947 14.1168 14.0598 14.0665V14.0665ZM10.3698 14.0665C10.3305 14.1079 10.2833 14.141 10.2308 14.1635C10.1784 14.1861 10.1219 14.1977 10.0648 14.1977C10.0077 14.1977 9.95121 14.1861 9.89877 14.1635C9.84633 14.141 9.79904 14.1079 9.75979 14.0665C9.29376 13.5414 9.03639 12.8636 9.03639 12.1615C9.03639 11.4594 9.29376 10.7816 9.75979 10.2565C9.79734 10.2122 9.84407 10.1767 9.89674 10.1523C9.94941 10.1279 10.0068 10.1153 10.0648 10.1153C10.1228 10.1153 10.1802 10.1279 10.2328 10.1523C10.2855 10.1767 10.3322 10.2122 10.3698 10.2565C10.452 10.3467 10.4976 10.4644 10.4976 10.5865C10.4976 10.7086 10.452 10.8263 10.3698 10.9165C10.0702 11.2723 9.90401 11.7214 9.89979 12.1865C9.89666 12.6278 10.0489 13.0561 10.3298 13.3965C10.4205 13.4821 10.4751 13.5991 10.4825 13.7236C10.4899 13.8481 10.4496 13.9707 10.3698 14.0665V14.0665ZM8.86979 15.2765C8.77576 15.342 8.6603 15.3691 8.54695 15.3524C8.4336 15.3357 8.3309 15.2763 8.25979 15.1865C7.63994 14.3089 7.30714 13.2609 7.30714 12.1865C7.30714 11.1121 7.63994 10.0641 8.25979 9.18649C8.3309 9.09665 8.4336 9.03732 8.54695 9.0206C8.6603 9.00387 8.77576 9.03102 8.86979 9.09649C8.91673 9.12625 8.95677 9.1657 8.98722 9.21219C9.01768 9.25869 9.03784 9.31115 9.04636 9.36608C9.05488 9.421 9.05157 9.47711 9.03664 9.53064C9.02171 9.58418 8.99551 9.63391 8.95979 9.67649C8.45632 10.413 8.18696 11.2844 8.18696 12.1765C8.18696 13.0686 8.45632 13.94 8.95979 14.6765C8.99447 14.7213 9.0197 14.7727 9.03399 14.8276C9.04827 14.8825 9.05129 14.9396 9.04288 14.9957C9.03447 15.0518 9.0148 15.1055 8.98505 15.1538C8.95531 15.2021 8.9161 15.2438 8.86979 15.2765V15.2765Z" fill="white"/>
<defs>
<linearGradient id="paint0_linear" x1="12.2098" y1="0.996508" x2="12.2098" y2="23.3865" gradientUnits="userSpaceOnUse">
<stop stop-color="#FF9402"/>
<stop offset="1" stop-color="#FF613C"/>
</linearGradient>
</defs>
</svg>
