<svg width="24" height="24" viewBox="0 0 24 24" fill="none" xmlns="http://www.w3.org/2000/svg">
<path d="M22.5739 20.0657C22.269 20.7901 21.7857 21.4255 21.169 21.9127C20.7079 22.2781 20.181 22.5515 19.6168 22.7183C18.7466 22.9341 17.8504 23.0267 16.9544 22.9934H7.06136C6.1654 23.0267 5.26919 22.9341 4.39898 22.7183C3.74278 22.5203 3.13837 22.1799 2.6289 21.7214C2.11943 21.2629 1.71747 20.6975 1.45169 20.0657C1.1089 19.0479 0.95897 17.9751 1.0096 16.9023V16.9023V7.07804C0.960963 6.01178 1.11087 4.94576 1.45169 3.93427C1.71747 3.30247 2.11943 2.73714 2.6289 2.27862C3.13837 1.8201 3.74278 1.4797 4.39898 1.28171C5.26919 1.06587 6.1654 0.973273 7.06136 1.00663H16.9642C17.8602 0.973273 18.7564 1.06587 19.6266 1.28171C20.2828 1.4797 20.8872 1.8201 21.3967 2.27862C21.9062 2.73714 22.3081 3.30247 22.5739 3.93427C22.9143 4.94587 23.0642 6.0118 23.016 7.07804V16.9023C23.0671 17.9751 22.9171 19.048 22.5739 20.0657V20.0657Z" fill="url(#paint0_linear)"/>
<path d="M12.2098 17.3065C11.1996 17.3065 10.212 17.007 9.37188 16.446C8.53176 15.8849 7.87679 15.0874 7.48974 14.1543C7.10268 13.2211 7.0009 12.1942 7.19727 11.2032C7.39363 10.2123 7.87932 9.30174 8.59296 8.5867C9.30661 7.87166 10.2162 7.38419 11.2068 7.18589C12.1974 6.98759 13.2245 7.08736 14.1584 7.47259C15.0923 7.85783 15.8911 8.51123 16.4538 9.35025C17.0164 10.1893 17.3178 11.1762 17.3198 12.1865H19.1298C19.1298 10.8178 18.7239 9.47992 17.9636 8.34194C17.2032 7.20395 16.1224 6.31699 14.858 5.79324C13.5935 5.26948 12.2021 5.13244 10.8598 5.39945C9.51742 5.66646 8.2844 6.32552 7.31662 7.2933C6.34884 8.26108 5.68977 9.49411 5.42276 10.8365C5.15575 12.1788 5.29279 13.5702 5.81655 14.8347C6.34031 16.0991 7.22726 17.1799 8.36525 17.9403C9.50324 18.7006 10.8412 19.1065 12.2098 19.1065V19.1065V17.3065Z" fill="white"/>
<path d="M12.2098 7.98651C11.0932 7.98651 10.0224 8.43006 9.23284 9.21959C8.44331 10.0091 7.99976 11.0799 7.99976 12.1965C7.99976 13.3131 8.44331 14.3839 9.23284 15.1734C10.0224 15.963 11.0932 16.4065 12.2098 16.4065V16.4065V14.9065C11.6742 14.9065 11.1506 14.7478 10.7052 14.4505C10.2598 14.1531 9.91242 13.7305 9.70701 13.2359C9.50161 12.7413 9.44736 12.1969 9.55112 11.6715C9.65488 11.1461 9.91199 10.6632 10.29 10.2838C10.668 9.90439 11.1499 9.6455 11.675 9.53981C12.2 9.43412 12.7446 9.48636 13.2399 9.68994C13.7353 9.89352 14.1592 10.2393 14.4582 10.6837C14.7572 11.128 14.9178 11.651 14.9198 12.1865H16.4198C16.4171 11.0717 15.9724 10.0034 15.1831 9.21605C14.3939 8.42869 13.3246 7.98651 12.2098 7.98651V7.98651Z" fill="white"/>
<defs>
<linearGradient id="paint0_linear" x1="12.0128" y1="0.996809" x2="12.0128" y2="22.9934" gradientUnits="userSpaceOnUse">
<stop stop-color="#F0564C"/>
<stop offset="1" stop-color="#E14E50"/>
</linearGradient>
</defs>
</svg>
