<svg width="24" height="24" viewBox="0 0 24 24" fill="none" xmlns="http://www.w3.org/2000/svg">
<path d="M1.24893 13.1345C1.20319 13.1345 1.16672 13.1698 1.16093 13.2208L1 14.4428L1.16093 15.6435C1.16151 15.6938 1.20319 15.7291 1.24893 15.7291C1.2935 15.7291 1.32939 15.6944 1.33692 15.6435L1.52738 14.4422L1.33692 13.2202C1.32997 13.1698 1.2935 13.1345 1.24893 13.1345V13.1345ZM2.15375 12.467C2.14623 12.4144 2.1086 12.3785 2.06228 12.3785C2.01597 12.3785 1.97719 12.4161 1.97082 12.467C1.97082 12.4671 1.75431 14.4428 1.75431 14.4428L1.97082 16.3746C1.97719 16.4267 2.01539 16.4638 2.06228 16.4638C2.1086 16.4638 2.14623 16.4273 2.15375 16.3752L2.39978 14.4428L2.15375 12.467ZM5.56117 10.6446C5.47259 10.6446 5.39907 10.717 5.39502 10.8096L5.22251 14.4446L5.39502 16.7937C5.39965 16.8858 5.47259 16.9581 5.56117 16.9581C5.64916 16.9581 5.72268 16.8858 5.72789 16.7937V16.7938L5.9224 14.4446L5.72789 10.8097C5.72268 10.7176 5.64974 10.6447 5.56117 10.6447V10.6446ZM3.79725 11.9079C3.72894 11.9079 3.67337 11.9623 3.66816 12.0347L3.47423 14.4429L3.66816 16.7701C3.67337 16.8424 3.72894 16.8968 3.79725 16.8968C3.86441 16.8968 3.92056 16.8424 3.92635 16.7701L4.14691 14.4429L3.92635 12.0341C3.92577 11.9617 3.86498 11.9073 3.79725 11.9073V11.9079ZM7.35345 16.9565C7.46344 16.9565 7.55317 16.8679 7.55722 16.7544L7.72626 14.4452L7.5578 9.60616C7.55317 9.49269 7.46402 9.40412 7.35403 9.40412C7.24288 9.40412 7.15315 9.49327 7.14967 9.60674L6.99974 14.4452L7.14967 16.7556C7.15315 16.8685 7.24288 16.957 7.35345 16.957V16.9565ZM11.0225 16.9675C11.1742 16.9675 11.2987 16.843 11.3016 16.6896V16.6913V16.6896L11.4197 14.4464L11.3016 8.85764C11.2987 8.70481 11.1736 8.57977 11.0225 8.57977C10.8709 8.57977 10.7458 8.70423 10.7435 8.85822L10.6381 14.4452C10.6381 14.4487 10.7435 16.6919 10.7435 16.6919C10.7458 16.8436 10.8714 16.9686 11.0225 16.9686V16.9675ZM9.17409 16.9599C9.30608 16.9599 9.41202 16.854 9.41549 16.7191V16.7209L9.55906 14.4464L9.41549 9.572C9.41202 9.43712 9.3055 9.33176 9.17409 9.33176C9.04152 9.33176 8.93501 9.43712 8.93211 9.572L8.80475 14.4464L8.93269 16.7203C8.93558 16.8534 9.04152 16.9594 9.17467 16.9594L9.17409 16.9599ZM4.6766 16.9379C4.75476 16.9379 4.81844 16.8754 4.82422 16.7926L5.03205 14.4435L4.82422 12.2083C4.82365 12.1255 4.75534 12.0636 4.6766 12.0636C4.5973 12.0636 4.53362 12.1261 4.52898 12.2095L4.34605 14.4435L4.52898 16.7926C4.53419 16.8754 4.5973 16.9379 4.6766 16.9379V16.9379ZM2.92832 16.8094C2.98563 16.8094 3.03194 16.7643 3.03831 16.7018L3.27161 14.4429L3.03831 12.0989C3.03137 12.0364 2.98505 11.9912 2.92774 11.9912C2.86985 11.9912 2.82354 12.0364 2.81775 12.0989L2.61224 14.4429L2.81775 16.7012C2.81833 16.7637 2.86985 16.8094 2.92774 16.8094H2.92832ZM10.0963 9.49038C9.95329 9.49038 9.83867 9.60442 9.83578 9.74973L9.71942 14.4458L9.83578 16.7058C9.83867 16.8494 9.95329 16.9634 10.0963 16.9634C10.2393 16.9634 10.3533 16.85 10.3568 16.7041V16.7058L10.4876 14.4458L10.3568 9.74857C10.3533 9.60326 10.2393 9.4898 10.0963 9.4898V9.49038ZM6.45557 16.9611C6.55456 16.9611 6.63619 16.8806 6.64082 16.7776L6.82259 14.4446L6.64082 9.97839C6.63561 9.87535 6.55456 9.79488 6.45557 9.79488C6.356 9.79488 6.27437 9.87535 6.27032 9.97839L6.10939 14.4446L6.27032 16.7776C6.27437 16.8795 6.356 16.9599 6.45557 16.9599V16.9611ZM8.48462 16.74V16.7388L8.64092 14.444L8.48462 9.44175C8.48115 9.31729 8.38273 9.22003 8.26174 9.22003C8.14017 9.22003 8.04234 9.31729 8.03887 9.44175L7.90051 14.4435L8.03944 16.7394C8.04292 16.8627 8.14075 16.9594 8.26232 16.9594C8.38331 16.9594 8.48115 16.8621 8.4852 16.7382L8.48462 16.74ZM20.2942 11.5605C19.9237 11.5605 19.57 11.6358 19.2476 11.7707C19.0322 9.33176 16.9875 7.41907 14.493 7.41907C13.8829 7.41907 13.2878 7.53948 12.7621 7.74267C12.5578 7.8214 12.5034 7.90303 12.5016 8.06107V16.6491C12.5039 16.8146 12.6325 16.9524 12.794 16.9692C12.8009 16.9693 20.2462 16.9738 20.2942 16.9738C21.7884 16.9738 23 15.7622 23 14.2681C23 12.7733 21.7889 11.5617 20.2942 11.5617V11.5605ZM11.9482 8.05354C11.7855 8.05354 11.6524 8.18669 11.6501 8.3511L11.5279 14.4464L11.6501 16.6583C11.6524 16.8199 11.7855 16.953 11.9482 16.953C12.1103 16.953 12.2434 16.8199 12.2463 16.656V16.6589L12.3789 14.4464L12.2463 8.35052C12.244 8.18727 12.1103 8.05354 11.9482 8.05354" fill="url(#paint0_linear)"/>
<defs>
<linearGradient id="paint0_linear" x1="12.2796" y1="16.8928" x2="12.1916" y2="7.37516" gradientUnits="userSpaceOnUse">
<stop stop-color="#FF433A"/>
<stop offset="1" stop-color="#FF9436"/>
</linearGradient>
</defs>
</svg>
