<svg width="24" height="24" viewBox="0 0 24 24" fill="none" xmlns="http://www.w3.org/2000/svg">
<path d="M22.5199 6.90121C22.2657 5.95512 21.5173 5.20673 20.5712 4.95255C18.8626 4.48657 11.9859 4.48657 11.9859 4.48657C11.9859 4.48657 5.10911 4.50069 3.40051 4.96667C2.45443 5.22085 1.70603 5.96924 1.45186 6.91533C1 8.62393 1 12.1965 1 12.1965C1 12.1965 1 15.769 1.46598 17.4917C1.72015 18.4378 2.46855 19.1862 3.41463 19.4404C5.12323 19.9063 12 19.9063 12 19.9063C12 19.9063 18.8768 19.9063 20.5854 19.4404C21.5315 19.1862 22.2798 18.4378 22.534 17.4917C23 15.7831 23 12.1965 23 12.1965C23 12.1965 22.9859 8.62393 22.5199 6.90121Z" fill="#FF0000"/>
<path d="M9.79712 15.5007L15.5019 12.1964L9.79712 8.89221V15.5007Z" fill="white"/>
</svg>
